<?xml version="1.0" encoding="iso-8859-1"?>
<!-- Generator: Adobe Illustrator 19.0.1, SVG Export Plug-In . SVG Version: 6.00 Build 0)  -->
<svg version="1.1" id="Layer_1" xmlns="http://www.w3.org/2000/svg" xmlns:xlink="http://www.w3.org/1999/xlink" x="0px" y="0px"
	 viewBox="0 0 116.801 91.769" style="enable-background:new 0 0 116.801 91.769;" xml:space="preserve">
<path style="fill:#546E7A;" d="M41.48,60.38c-2.105-3.985-2.815-8.238-2.437-12.7c0.424-2.208,1.22-4.298,2.031-6.383
	c0.104-0.189,0.207-0.377,0.311-0.566c0.102-0.133,0.203-0.266,0.305-0.399c1.767-2.634,3.978-4.822,6.609-6.589
	c0.145-0.107,0.291-0.215,0.436-0.322l0.012-0.006c2.229-0.99,4.516-1.808,6.904-2.325c4.34-0.309,8.502,0.323,12.403,2.341
	c1.073,0.767,2.146,1.534,3.219,2.301c2.706,2.595,4.649,5.685,5.951,9.19c0.546,2.576,0.641,5.185,0.574,7.806
	c-1.513,9.413-7.792,15.705-17.098,17.135c-2.626,0.124-5.235-0.004-7.812-0.564c-3.536-1.289-6.649-3.232-9.248-5.971
	C42.92,62.344,42.2,61.362,41.48,60.38z"/>
<path style="fill:#546E7A;" d="M11.986,48.114c-3.302-0.454-6.375-1.366-8.803-3.873c-3.864-3.99-4.746-9.914-2.107-14.777
	c2.624-4.834,8.11-7.366,13.535-6.258c0.447,0.091,0.907,0.117,1.36,0.174c1.245,0.666,2.489,1.331,3.734,1.997
	c2.629,2.339,4.497,5.097,4.772,8.722c0.061,0.803,0.39,1.294,1.278,1.21c1.149,0.671,2.422,0.978,3.7,1.272
	c1.223,0.763,3.336,0.445,3.774,1.706c0.337,0.971-0.798,2.468-1.313,3.716c-0.509,1.233-0.123,3.223-1.299,3.628
	c-1.034,0.356-2.655-0.428-3.804-1.083c-3.416-1.946-6.028-0.778-8.394,1.815c-0.175,0.116-0.349,0.232-0.524,0.348l0.022-0.017
	C15.992,47.386,14.014,47.856,11.986,48.114z"/>
<path style="fill:#546E7A;" d="M105.289,22.81c7.372,1.333,11.81,5.877,11.946,12.231c0.169,7.901-6.513,13.829-14.362,12.745
	c-0.528-0.073-1.06-0.11-1.591-0.164c-1.265-0.605-2.53-1.209-3.795-1.814c-1.696-2.468-3.831-2.957-6.464-1.508
	c-0.583,0.321-1.29,0.415-1.938,0.621c-3.015,0.963-3.015,0.964-4.036-1.839c-0.123-1.346-0.586-2.569-1.326-3.693
	c-0.308-0.896-0.418-1.651,0.873-1.845c0.635-0.095,1.236-0.416,1.852-0.635c0.154-0.086,0.308-0.172,0.462-0.258l-0.004,0.001
	c3.073-0.467,5.964-1.13,5.976-5.164c0.001-0.43,0.242-0.859,0.372-1.288c1.401-2.657,3.385-4.736,6.065-6.128
	c0.152-0.098,0.304-0.195,0.457-0.293l-0.002,0.001C101.593,23.346,103.391,22.796,105.289,22.81z"/>
<path style="fill:#546E7A;" d="M74.416,90.415c0.105-2.365,0.483-4.664,1.771-6.71c0.417-0.663,0.348-1.193-0.124-1.804
	c-1.341-1.735-2.634-3.506-3.946-5.262c0.075-0.647-1.611-1.177-0.082-1.939c2.243-1.119,4.019-2.912,6.059-4.326
	c1.37,1.912,2.832,3.767,4.08,5.755c0.863,1.375,1.851,1.862,3.357,1.286c2.013-0.06,4.003,0.103,5.955,0.626
	c3.342,1.549,5.79,3.997,7.366,7.323c0.28,1.234,0.559,2.468,0.839,3.702c-0.733,1.337-0.184,2.847-0.61,4.253
	c-1.46,4.814-5.608,8.446-10.455,9.018c-5.186,0.612-10.084-1.909-12.613-6.5c-0.325-0.59-0.61-1.201-0.914-1.802
	C74.871,92.828,74.643,91.622,74.416,90.415z"/>
<path style="fill:#546E7A;" d="M55.831-10.613c4.449-0.569,8.359,0.598,11.688,3.632c0.587,0.771,1.174,1.542,1.761,2.312
	c3.29,8.118,1.571,13.464-5.848,17.865c-0.858,0.509-0.889,1.101-0.87,1.866c0.027,1.064,0.05,2.128,0.075,3.192
	c-0.031,1.534-0.062,3.069-0.093,4.603l-0.003,0c-1.532-0.004-3.064-0.007-4.597-0.011c-3.697-0.107-3.697-0.107-3.697-3.94
	c0-1.358-0.041-2.718,0.013-4.074c0.04-0.991-0.247-1.615-1.333-1.644c-1.085-0.763-2.169-1.526-3.254-2.288
	C46.606,7.666,45.554,3.78,45.971-0.58C47.364-5.785,50.678-9.103,55.831-10.613z"/>
<path style="fill:#546E7A;" d="M41.813,85.923c1.289,5.544,0.082,10.319-4.494,13.935c-3.441,2.719-7.393,2.99-11.524,2.043
	c-1.216-0.648-2.433-1.296-3.649-1.943c-2.832-2.575-4.674-5.681-5.125-9.536c0.375-1.815,0.751-3.629,1.126-5.444
	c1.382-2.849,3.552-4.946,6.244-6.546c2.229-0.792,4.526-1.127,6.889-1.014c1.511,0.579,2.494,0.08,3.366-1.29
	c1.265-1.987,2.754-3.831,4.183-5.785c1.058,0.858,2.032,1.698,3.059,2.467c1.143,0.855,3.09,1.492,3.293,2.504
	c0.203,1.008-1.323,2.363-2.091,3.566C40.036,82.399,40.036,82.399,41.813,85.923z"/>
</svg>
