<?xml version="1.0" encoding="iso-8859-1"?>
<!-- Generator: Adobe Illustrator 19.0.1, SVG Export Plug-In . SVG Version: 6.00 Build 0)  -->
<svg version="1.1" id="Layer_1" xmlns="http://www.w3.org/2000/svg" xmlns:xlink="http://www.w3.org/1999/xlink" x="0px" y="0px"
	 viewBox="0 0 116.801 91.769" style="enable-background:new 0 0 116.801 91.769;" xml:space="preserve">
<g>
	<path style="fill:#546E7A;" d="M12.516,33.371c-3.477,0-6.434,1.219-8.868,3.652C1.219,39.453,0,42.41,0,45.887
		c0,3.476,1.219,6.429,3.652,8.863c2.434,2.433,5.387,3.648,8.864,3.648c3.476,0,6.429-1.215,8.863-3.648
		c2.433-2.434,3.648-5.387,3.648-8.863c0-3.477-1.215-6.434-3.648-8.864C18.945,34.59,15.992,33.371,12.516,33.371L12.516,33.371z
		 M12.516,33.371"/>
	<path style="fill:#546E7A;" d="M12.516,0c-3.477,0-6.43,1.219-8.864,3.648C1.219,6.082,0,9.039,0,12.512
		c0,3.48,1.219,6.433,3.652,8.867c2.434,2.433,5.387,3.648,8.864,3.648c3.476,0,6.429-1.215,8.863-3.648
		c2.433-2.434,3.648-5.387,3.648-8.867c0-3.473-1.215-6.43-3.648-8.864C18.945,1.219,15.992,0,12.516,0L12.516,0z M12.516,0"/>
	<path style="fill:#546E7A;" d="M12.516,66.742c-3.477,0-6.434,1.219-8.864,3.652C1.219,72.828,0,75.781,0,79.258
		c0,3.476,1.219,6.429,3.652,8.863c2.434,2.433,5.387,3.648,8.864,3.648c3.476,0,6.429-1.215,8.863-3.648
		c2.433-2.434,3.648-5.387,3.648-8.863c0-3.477-1.215-6.434-3.648-8.864C18.945,67.961,15.992,66.742,12.516,66.742L12.516,66.742z
		 M12.516,66.742"/>
	<path style="fill:#546E7A;" d="M116.18,4.789c-0.414-0.41-0.899-0.617-1.465-0.617H35.457c-0.566,0-1.055,0.207-1.465,0.617
		c-0.414,0.414-0.621,0.902-0.621,1.469v12.515c0,0.563,0.207,1.051,0.621,1.465c0.41,0.414,0.899,0.617,1.465,0.617h79.258
		c0.566,0,1.055-0.203,1.465-0.617c0.414-0.414,0.621-0.902,0.621-1.465V6.258C116.801,5.691,116.594,5.203,116.18,4.789
		L116.18,4.789z M116.18,4.789"/>
	<path style="fill:#546E7A;" d="M114.715,37.543H35.457c-0.566,0-1.055,0.207-1.465,0.621c-0.414,0.41-0.621,0.898-0.621,1.465
		v12.515c0,0.563,0.207,1.051,0.621,1.465c0.41,0.414,0.899,0.621,1.465,0.621h79.258c0.566,0,1.055-0.207,1.465-0.621
		c0.414-0.414,0.621-0.902,0.621-1.465V39.629c0-0.567-0.207-1.055-0.621-1.465C115.766,37.75,115.281,37.543,114.715,37.543
		L114.715,37.543z M114.715,37.543"/>
	<path style="fill:#546E7A;" d="M114.715,70.914H35.457c-0.566,0-1.055,0.207-1.465,0.621c-0.414,0.41-0.621,0.898-0.621,1.465
		v12.515c0,0.563,0.207,1.051,0.621,1.465c0.41,0.414,0.899,0.617,1.465,0.617h79.258c0.566,0,1.055-0.203,1.465-0.617
		c0.414-0.414,0.621-0.902,0.621-1.465V73c0-0.567-0.207-1.055-0.621-1.465C115.766,71.121,115.281,70.914,114.715,70.914
		L114.715,70.914z M114.715,70.914"/>
</g>
</svg>
